<?xml version="1.0" standalone="no"?>
<!DOCTYPE svg PUBLIC "-//W3C//DTD SVG 20010904//EN"
 "http://www.w3.org/TR/2001/REC-SVG-20010904/DTD/svg10.dtd">
<svg version="1.0" xmlns="http://www.w3.org/2000/svg"
 width="500.000000pt" height="500.000000pt" viewBox="0 0 500.000000 500.000000"
 preserveAspectRatio="xMidYMid meet">

<g transform="translate(0.000000,500.000000) scale(0.100000,-0.100000)"
fill="#dddddd" stroke="none">
<path d="M2930 4301 c-91 -28 -165 -96 -208 -189 l-25 -56 -17 48 c-22 67 -50
96 -93 96 -28 0 -47 -12 -103 -61 -84 -74 -133 -100 -254 -134 -93 -26 -180
-64 -213 -93 -16 -14 -21 -13 -61 16 -170 122 -533 220 -671 181 -79 -23 -105
-73 -126 -244 -26 -209 23 -467 131 -686 22 -46 38 -91 35 -100 -8 -23 -101
-101 -152 -128 -24 -12 -72 -28 -107 -36 -89 -21 -95 -24 -111 -56 -22 -42
-18 -74 17 -146 62 -124 222 -283 315 -314 80 -25 81 -21 -21 -122 -101 -100
-137 -159 -177 -287 -29 -92 -31 -267 -6 -370 22 -92 76 -215 127 -290 61 -91
210 -236 305 -299 161 -105 403 -203 598 -240 317 -61 635 -45 907 46 229 77
433 203 569 351 61 67 169 240 200 322 49 126 61 192 61 336 0 160 -21 247
-71 288 -56 47 -90 34 -152 -62 -25 -37 -62 -84 -83 -104 -45 -42 -150 -108
-174 -108 -9 0 -22 18 -32 48 -10 26 -33 73 -53 106 -19 32 -33 61 -30 65 2 4
35 20 72 36 138 57 236 118 308 190 50 50 90 80 139 103 95 45 239 189 285
287 41 87 47 123 28 162 -18 33 -44 46 -127 63 -30 6 -75 23 -100 37 -53 32
-140 111 -140 128 0 7 17 50 39 96 89 196 124 351 125 564 1 190 -20 302 -62
336 -56 44 -174 48 -337 13 -139 -30 -126 -32 -158 30 -61 118 -175 187 -305
185 -37 0 -78 -4 -92 -8z m133 -114 c57 7 90 -12 108 -61 8 -21 21 -37 34 -40
32 -8 51 -51 39 -84 -7 -19 -7 -35 -1 -50 14 -31 -15 -92 -43 -92 -12 0 -22
-9 -26 -24 -3 -13 -16 -34 -29 -46 -20 -18 -31 -21 -67 -16 -53 7 -53 7 -105
0 -36 -5 -46 -2 -67 20 -15 14 -26 34 -26 46 0 13 -7 20 -18 20 -35 0 -51 31
-53 105 -2 89 5 111 41 124 19 6 30 17 30 28 0 47 68 90 116 72 11 -4 41 -5
67 -2z m-483 -167 c0 -41 -25 -99 -58 -134 l-27 -28 85 5 c47 2 92 7 101 11
13 5 24 -6 47 -48 44 -77 82 -117 144 -151 48 -27 61 -30 148 -30 77 1 105 5
147 24 83 37 174 148 192 236 6 26 14 32 81 53 51 16 110 25 186 29 127 7 115
15 133 -91 35 -197 -12 -454 -130 -705 -27 -57 -49 -109 -49 -115 0 -15 98
-136 141 -174 51 -44 140 -89 194 -98 25 -3 47 -10 50 -14 9 -14 -77 -133
-139 -193 -59 -58 -169 -120 -234 -133 -32 -7 -45 -24 -17 -24 25 0 17 -16
-27 -52 -134 -109 -260 -171 -470 -232 -330 -97 -628 -111 -938 -44 -242 52
-465 147 -608 261 -66 52 -73 61 -57 70 16 8 11 12 -33 23 -112 29 -237 123
-313 234 -27 40 -49 78 -49 85 0 7 20 15 48 19 27 3 73 18 103 33 57 28 169
133 214 201 l26 40 -46 91 c-51 103 -107 267 -131 385 -13 62 -15 113 -11 225
3 80 10 160 15 176 l9 30 99 -1 c70 0 122 -7 179 -23 109 -31 288 -118 356
-173 l57 -46 27 28 c41 43 129 85 240 115 116 31 218 81 265 130 42 43 50 44
50 5z m-1066 -1794 c33 -24 105 -64 158 -90 l97 -47 -45 -66 c-69 -104 -87
-161 -88 -278 -1 -89 2 -107 26 -157 33 -71 99 -143 158 -173 90 -46 187 -50
298 -14 26 9 41 7 73 -5 56 -22 151 -21 198 4 21 10 56 39 77 62 22 24 57 52
80 62 40 17 41 17 83 -5 99 -52 209 -31 298 57 32 32 56 66 63 91 l13 41 126
-1 c72 -1 152 4 186 12 151 33 280 108 355 207 38 50 44 55 51 38 13 -33 9
-206 -6 -277 -18 -86 -75 -227 -119 -292 -101 -153 -300 -314 -491 -398 -390
-170 -965 -152 -1356 43 -182 91 -318 198 -411 323 -195 264 -210 560 -39 774
36 46 133 133 148 133 3 0 33 -20 67 -44z m471 -212 c278 -89 738 -92 1054 -8
51 14 94 24 95 22 1 -2 15 -20 30 -42 27 -37 66 -123 66 -148 0 -20 -223 -1
-307 26 -21 7 -23 4 -23 -36 0 -120 -69 -212 -159 -212 -87 0 -128 52 -118
150 l6 55 -42 -24 c-48 -28 -80 -79 -74 -119 2 -16 3 -28 1 -28 -1 0 -11 16
-22 34 -19 32 -94 96 -113 96 -4 0 1 -25 12 -57 23 -68 24 -114 3 -158 -16
-35 -65 -65 -106 -65 -31 1 -99 32 -120 56 -27 31 -56 104 -64 162 l-7 52 -47
0 c-46 0 -49 -2 -55 -31 -10 -44 3 -131 26 -175 25 -50 25 -51 -13 -57 -52 -8
-119 11 -170 48 -40 29 -50 44 -64 92 -21 71 -14 182 14 245 20 44 97 148 110
148 4 0 43 -12 87 -26z"/>
<path d="M1905 3061 c-88 -40 -125 -101 -125 -203 0 -73 25 -125 80 -169 141
-113 350 -12 350 169 0 101 -52 177 -143 211 -43 17 -117 13 -162 -8z m74 -67
c59 -49 29 -144 -45 -144 -37 0 -84 47 -84 84 0 40 44 83 87 85 6 1 25 -11 42
-25z m142 -160 c19 -23 -1 -49 -37 -49 -30 0 -42 20 -30 51 7 19 50 18 67 -2z"/>
<path d="M2955 3062 c-84 -40 -128 -109 -128 -202 -1 -185 214 -286 357 -168
44 36 76 106 76 167 0 66 -43 147 -98 185 -55 39 -146 47 -207 18z m74 -68
c59 -49 29 -144 -44 -144 -87 0 -113 118 -35 157 35 18 44 16 79 -13z m141
-159 c19 -23 3 -55 -30 -55 -30 0 -44 21 -35 51 8 23 47 25 65 4z"/>
<path d="M2460 2782 c-64 -32 -61 -107 6 -132 19 -7 25 -16 22 -32 -5 -39 -88
-36 -88 3 0 23 -27 36 -42 21 -14 -14 7 -68 36 -87 24 -17 79 -20 106 -5 13 7
28 6 52 -4 26 -11 40 -11 68 -2 55 18 93 106 45 106 -8 0 -20 -11 -25 -24 -12
-34 -44 -50 -70 -36 -30 16 -25 47 10 65 56 29 53 106 -5 131 -45 18 -72 18
-115 -4z m10 -22 c0 -5 -5 -10 -11 -10 -5 0 -7 5 -4 10 3 6 8 10 11 10 2 0 4
-4 4 -10z"/>
</g>
</svg>
